#!OML:ASF F:\VICON\USERDATA\INSTALL\rory3\rory3.ASF
:FULLY-SPECIFIED
:DEGREES
1283
root 13.4179 17.8698 -3.44834 357.163 180.087 -358.776
lowerback 11.9516 5.85009 3.02411
upperback 1.28511 7.87457 -2.07241
thorax -4.59539 3.74869 -5.04692
lowerneck -15.8436 12.8788 -7.75455
upperneck 47.2546 15.5697 5.67181
head 19.7762 3.6443 6.53589
rclavicle -3.04141e-014 1.59028e-014
rhumerus -32.8883 -8.7609 -82.8091
rradius 35.1155
rwrist 1.1786
rhand -16.2254 6.62862
rfingers 7.12502
rthumb 9.98267 -23.1147
lclavicle -3.04141e-014 1.59028e-014
lhumerus -41.4958 12.6904 67.8055
lradius 39.3905
lwrist 1.40198
lhand -19.4319 27.5968
lfingers 7.12502
lthumb 6.88826 57.4647
rfemur -15.9788 -13.6925 18.9004
rtibia 58.1141
rfoot -13.0306 -8.49727
rtoes -4.21087
lfemur -11.4003 -6.00125 -26.4085
ltibia 25.5115
lfoot 173 -180.152
ltoes 17.0637
1284
root 13.407 17.8719 -3.40087 357.156 179.313 -359.01
lowerback 11.9172 5.66535 2.80907
upperback 1.23251 7.98895 -2.19512
thorax -4.64071 3.96634 -5.08826
lowerneck -15.7593 12.8857 -7.75166
upperneck 47.2777 15.4844 5.72775
head 19.7666 3.60184 6.53545
rclavicle -1.52567e-014 0
rhumerus -33.1225 -8.70151 -82.9529
rradius 34.6537
rwrist 1.20011
rhand -15.9255 5.91651
rfingers 7.12502
rthumb 10.2721 -23.8127
lclavicle -1.52567e-014 0
lhumerus -41.3901 12.5743 67.8174
lradius 39.445
lwrist 1.55777
lhand -19.3305 27.1396
lfingers 7.12502
lthumb 6.98613 57.0043
rfemur -15.07 -14.0387 18.7282
rtibia 57.7794
rfoot -12.6621 -7.99767
rtoes -6.99081
lfemur -11.5792 -5.6418 -26.6351
ltibia 25.5317
lfoot 173.098 -179.248
ltoes 15.7097
1285
root 13.3976 17.8698 -3.3549 357.168 178.487 -359.076
lowerback 11.8827 5.73745 2.76387
upperback 1.13035 8.06787 -2.22531
thorax -4.72301 3.99778 -5.10929
lowerneck -15.6751 12.9087 -7.82194
upperneck 47.3839 15.3945 5.87347
head 19.7874 3.54196 6.59273
rclavicle 1.81391e-014 7.95139e-015
rhumerus -33.4721 -8.74503 -82.9983
rradius 34.2211
rwrist 1.3777
rhand -15.688 5.64662
rfingers 7.12502
rthumb 10.5012 -24.0711
lclavicle 1.81391e-014 7.95139e-015
lhumerus -41.4516 12.5611 67.7844
lradius 39.4975
lwrist 1.54748
lhand -19.3772 27.8392
lfingers 7.12502
lthumb 6.94102 57.7054
rfemur -14.2342 -14.3014 18.7779
rtibia 57.3212
rfoot -12.2533 -7.76874
rtoes -7.66462
lfemur -11.7843 -5.17138 -26.6505
ltibia 25.559
lfoot 173.419 -178.667
ltoes 14.9676
1286
root 13.388 17.8656 -3.30715 357.245 177.724 -358.989
lowerback 11.7116 5.78541 2.88993
upperback 1.06494 8.13495 -2.21291
thorax -4.67519 4.02527 -5.15656
lowerneck -15.5528 12.9091 -7.73683
upperneck 47.3634 15.343 5.75684
head 19.7777 3.50439 6.49696
rclavicle 3.44394e-014 9.54166e-015
rhumerus -33.7021 -8.76588 -83.0308
rradius 33.7916
rwrist 1.47231
rhand -15.685 5.81622
rfingers 7.12502
rthumb 10.5041 -23.9013
lclavicle 3.44394e-014 9.54166e-015
lhumerus -41.4381 12.6296 67.8076
lradius 39.5808
lwrist 1.56815
lhand -19.3624 28.0568
lfingers 7.12502
lthumb 6.9553 57.9226
rfemur -13.4049 -14.5698 19.0156
rtibia 56.7245
rfoot -11.9521 -7.67462
rtoes -6.68776
lfemur -12.0561 -4.77754 -26.5013
ltibia 25.5916
lfoot 173.654 -178.759
ltoes 16.0586
1287
root 13.3775 17.8694 -3.25607 357.33 177.013 -358.752
lowerback 11.4961 5.79573 3.18849
upperback 1.07529 8.17725 -2.17118
thorax -4.50583 4.04493 -5.25136
lowerneck -15.5356 12.9164 -7.61583
upperneck 47.3335 15.3381 5.60879
head 19.7971 3.49052 6.40118
rclavicle -7.36994e-014 1.27222e-014
rhumerus -33.6532 -8.69305 -83.1274
rradius 33.2348
rwrist 1.65536
rhand -15.7253 5.94476
rfingers 7.12502
rthumb 10.4652 -23.7748
lclavicle -7.36994e-014 1.27222e-014
lhumerus -41.3253 12.6735 67.9315
lradius 39.7754
lwrist 1.6846
lhand -19.4218 27.5816
lfingers 7.12502
lthumb 6.89794 57.4493
rfemur -12.535 -14.8315 19.4564
rtibia 55.9734
rfoot -11.5573 -7.69154
rtoes -5.49755
lfemur -12.3378 -4.57258 -26.1813
ltibia 25.6217
lfoot 173.737 -178.423
ltoes 21.3243
1288
root 13.3675 17.8797 -3.2023 357.345 176.221 -358.635
lowerback 11.4636 5.83047 3.36425
upperback 1.03637 8.23954 -2.17575
thorax -4.49693 4.07018 -5.35803
lowerneck -15.4678 12.9893 -7.48206
upperneck 47.4492 15.3197 5.61337
head 19.8754 3.46954 6.37863
rclavicle -3.23025e-015 -2.94201e-014
rhumerus -33.7096 -8.80435 -83.2022
rradius 32.6537
rwrist 2.16755
rhand -15.6364 6.00844
rfingers 7.12502
rthumb 10.5509 -23.7067
lclavicle -3.23025e-015 -2.94201e-014
lhumerus -41.3869 12.5158 68.0589
lradius 40.0615
lwrist 1.93959
lhand -19.7745 27.2714
lfingers 7.12502
lthumb 6.55749 57.1499
rfemur -11.604 -14.9571 19.7615
rtibia 55.0945
rfoot -10.8359 -7.73197
rtoes -3.58916
lfemur -12.5301 -4.32195 -25.9734
ltibia 25.5862
lfoot 174.249 -178.015
ltoes 20.6401
1289
root 13.3547 17.8896 -3.15489 357.386 175.328 -358.583
lowerback 11.3724 5.91483 3.50084
upperback 1.01449 8.36188 -2.17841
thorax -4.43649 4.12852 -5.43929
lowerneck -15.5032 13.0283 -7.55535
upperneck 47.5954 15.2962 5.72923
head 19.9572 3.42412 6.45065
rclavicle -5.41688e-014 3.18055e-015
rhumerus -33.7624 -8.98821 -83.1901
rradius 32.1133
rwrist 2.58461
rhand -15.4897 6.34074
rfingers 7.12502
rthumb 10.6924 -23.3672
lclavicle -5.41688e-014 3.18055e-015
lhumerus -41.3917 12.5573 68.1693
lradius 40.1831
lwrist 1.98377
lhand -20.0849 26.8732
lfingers 7.12502
lthumb 6.25789 56.7608
rfemur -10.6573 -15.0619 19.9277
rtibia 54.0986
rfoot -9.7865 -7.70325
rtoes -2.51492
lfemur -12.6599 -4.03135 -25.853
ltibia 25.4387
lfoot 174.559 -177.557
ltoes 19.598
1290
root 13.3418 17.8992 -3.10871 357.465 174.486 -358.515
lowerback 11.2152 5.98915 3.64685
upperback 0.997392 8.46945 -2.1696
thorax -4.33602 4.18089 -5.50206
lowerneck -15.5626 13.0432 -7.69413
upperneck 47.697 15.2719 5.85099
head 20.0054 3.37742 6.53373
rclavicle -2.13197e-014 2.46493e-014
rhumerus -33.757 -8.98407 -83.2376
rradius 31.5084
rwrist 2.69507
rhand -15.525 6.91356
rfingers 7.12502
rthumb 10.6584 -22.7961
lclavicle -2.13197e-014 2.46493e-014
lhumerus -41.3362 12.7557 68.2672
lradius 40.2624
lwrist 1.87668
lhand -20.0632 26.6534
lfingers 7.12502
lthumb 6.27877 56.5404
rfemur -9.73271 -15.2429 20.1177
rtibia 52.9905
rfoot -8.6973 -7.73329
rtoes -2.46769
lfemur -12.8134 -3.7484 -25.7224
ltibia 25.2907
lfoot 174.682 -177.249
ltoes 19.2727
1291
root 13.332 17.9063 -3.05185 357.529 173.706 -358.55
lowerback 11.1805 6.04735 3.64295
upperback 0.960157 8.54109 -2.17518
thorax -4.34752 4.21359 -5.51242
lowerneck -15.5519 13.0592 -7.7212
upperneck 47.726 15.2589 5.8507
head 20.0199 3.3483 6.53129
rclavicle 6.64935e-014 0
rhumerus -33.7702 -8.97974 -83.3117
rradius 30.9899
rwrist 3.00719
rhand -15.6499 6.94416
rfingers 7.12502
rthumb 10.5379 -22.7717
lclavicle 6.64935e-014 0
lhumerus -41.2715 12.8997 68.3945
lradius 40.3935
lwrist 1.88248
lhand -20.2112 26.6109
lfingers 7.12502
lthumb 6.13595 56.502
rfemur -8.86995 -15.3367 20.2869
rtibia 51.7574
rfoot -7.94967 -8.10582
rtoes -2.21211
lfemur -13.0807 -3.41955 -25.6889
ltibia 25.2376
lfoot 174.863 -176.992
ltoes 18.1736
1292
root 13.3206 17.9037 -2.98909 357.577 173.018 -358.448
lowerback 11.2482 6.05639 3.8301
upperback 0.931305 8.57554 -2.13705
thorax -4.39008 4.22323 -5.5897
lowerneck -15.5393 13.0629 -7.80842
upperneck 47.7354 15.238 5.88242
head 20.0067 3.31625 6.54931
rclavicle 2.98674e-014 7.95139e-015
rhumerus -33.8214 -9.19271 -83.2564
rradius 30.6614
rwrist 3.57197
rhand -15.528 6.84949
rfingers 7.12502
rthumb 10.6554 -22.8603
lclavicle 2.98674e-014 7.95139e-015
lhumerus -41.269 12.9671 68.6448
lradius 40.7094
lwrist 1.96644
lhand -19.9874 26.6796
lfingers 7.12502
lthumb 6.35195 56.5644
rfemur -7.91188 -15.449 20.593
rtibia 50.359
rfoot -7.74783 -8.69759
rtoes -2.64013
lfemur -13.4082 -3.16318 -25.5111
ltibia 25.276
lfoot 175.219 -176.564
ltoes 16.8423
1293
root 13.3076 17.9022 -2.93348 357.745 172.326 -358.23
lowerback 11.1055 6.06232 4.18994
upperback 0.905793 8.61757 -2.10066
thorax -4.28636 4.23884 -5.73379
lowerneck -15.5272 13.0995 -7.87098
upperneck 47.782 15.2402 5.94574
head 20.0134 3.29658 6.58584
rclavicle 2.76311e-014 1.11319e-014
rhumerus -33.7971 -9.64769 -83.1544
rradius 30.0829
rwrist 3.94248
rhand -15.7972 8.0038
rfingers 7.12502
rthumb 10.3958 -21.7192
lclavicle 2.76311e-014 1.11319e-014
lhumerus -41.2558 13.0205 68.8875
lradius 40.9747
lwrist 1.94309
lhand -18.9748 26.7948
lfingers 7.12502
lthumb 7.32944 56.6479
rfemur -6.99129 -15.5427 21.0227
rtibia 48.7643
rfoot -8.27049 -9.58452
rtoes -5.30777
lfemur -13.8274 -2.98219 -25.1989
ltibia 25.3792
lfoot 175.551 -176.078
ltoes 17.5397
1294
root 13.2939 17.9036 -2.88008 357.948 171.603 -358.107
lowerback 10.9207 6.1003 4.50489
upperback 0.856457 8.69205 -2.13203
thorax -4.17572 4.27151 -5.92349
lowerneck -15.4602 13.1439 -7.87347
upperneck 47.829 15.2072 6.03292
head 20.0119 3.27807 6.6141
rclavicle -1.53959e-013 4.53229e-014
rhumerus -33.8579 -10.3709 -82.9413
rradius 29.8647
rwrist 5.74546
rhand -15.1148 7.07681
rfingers 7.12502
rthumb 11.054 -22.6121
lclavicle -1.53959e-013 4.53229e-014
lhumerus -41.2221 13.0085 69.0619
lradius 41.0753
lwrist 1.90914
lhand -18.4641 26.091
lfingers 7.12502
lthumb 7.82238 55.9263
rfemur -6.14808 -15.6501 21.3343
rtibia 46.9543
rfoot -9.36833 -10.4433
rtoes -9.93081
lfemur -14.2833 -2.75839 -24.9946
ltibia 25.548
lfoot 175.689 -175.692
ltoes 18.8765
1295
root 13.2801 17.9053 -2.81939 358.07 170.948 -358.014
lowerback 10.9274 6.04217 4.74007
upperback 0.779327 8.63683 -2.16894
thorax -4.22737 4.23352 -6.09093
lowerneck -15.3354 13.2227 -7.7874
upperneck 47.8166 15.2226 6.03184
head 19.9739 3.28725 6.58177
rclavicle 6.19711e-014 -1.51076e-014
rhumerus -34.098 -10.5355 -83.0195
rradius 29.8017
rwrist 6.64098
rhand -14.8615 6.68239
rfingers 7.12502
rthumb 11.2984 -22.9933
lclavicle 6.19711e-014 -1.51076e-014
lhumerus -41.3195 12.9602 69.1749
lradius 41.2795
lwrist 2.10859
lhand -18.7723 25.7163
lfingers 7.12502
lthumb 7.52495 55.5624
rfemur -5.27925 -15.6701 21.6188
rtibia 44.9689
rfoot -10.7509 -11.1094
rtoes -13.0674
lfemur -14.659 -2.6574 -24.8225
ltibia 25.6777
lfoot 175.799 -175.252
ltoes 19.095
1296
root 13.2662 17.8998 -2.75489 358.107 170.287 -358.057
lowerback 10.9838 5.92804 4.80553
upperback 0.722977 8.49014 -2.25357
thorax -4.31469 4.15322 -6.21171
lowerneck -15.183 13.3431 -7.47953
upperneck 47.7422 15.3179 5.81724
head 19.9459 3.33889 6.42072
rclavicle 5.46658e-015 1.98785e-014
rhumerus -34.2137 -10.1931 -83.4171
rradius 29.6772
rwrist 6.94764
rhand -14.8301 6.58455
rfingers 7.12502
rthumb 11.3286 -23.0895
lclavicle 5.46658e-015 1.98785e-014
lhumerus -41.445 12.9607 69.2054
lradius 41.5933
lwrist 2.38969
lhand -18.7367 26.5408
lfingers 7.12502
lthumb 7.55928 56.3857
rfemur -4.38755 -15.3543 21.7963
rtibia 42.9453
rfoot -12.0906 -11.8713
rtoes -14.1216
lfemur -14.9249 -2.60863 -24.7978
ltibia 25.705
lfoot 175.95 -174.738
ltoes 18.9079
1297
root 13.2487 17.8947 -2.69558 358.142 169.5 -358.22
lowerback 10.956 5.95763 4.83077
upperback 0.763775 8.53086 -2.33847
thorax -4.23406 4.17905 -6.31104
lowerneck -15.2382 13.3773 -7.30712
upperneck 47.6807 15.4164 5.56454
head 19.9797 3.36541 6.29021
rclavicle -3.22031e-014 1.98785e-014
rhumerus -34.1053 -10.1671 -83.5665
rradius 29.5366
rwrist 7.02339
rhand -14.3867 6.00731
rfingers 7.12502
rthumb 11.7562 -23.6428
lclavicle -3.22031e-014 1.98785e-014
lhumerus -41.2667 12.9864 69.478
lradius 41.7341
lwrist 2.21436
lhand -18.5206 27.1893
lfingers 7.12502
lthumb 7.76786 57.0266
rfemur -3.58975 -14.8768 21.8031
rtibia 41.0074
rfoot -12.9915 -12.6909
rtoes -14.6137
lfemur -15.1845 -2.42526 -24.9075
ltibia 25.711
lfoot 176.25 -174.144
ltoes 18.9988
